PathFileType	4	(X/Y/Z)	Demo_SinglePerson_0-995.trc
DataRate	CameraRate	NumFrames	NumMarkers	Units	OrigDataRate	OrigDataStartFrame	OrigNumFrames
30	30	6	22	m	30	870	995
Frame#	Time	Hip			RHip			RKnee			RAnkle			RBigToe			RSmallToe			RHeel			LHip			LKnee			LAnkle			LBigToe			LSmallToe			LHeel			Neck			Head			Nose			RShoulder			RElbow			RWrist			LShoulder			LElbow			LWrist		
		X1	Y1	Z1	X2	Y2	Z2	X3	Y3	Z3	X4	Y4	Z4	X5	Y5	Z5	X6	Y6	Z6	X7	Y7	Z7	X8	Y8	Z8	X9	Y9	Z9	X10	Y10	Z10	X11	Y11	Z11	X12	Y12	Z12	X13	Y13	Z13	X14	Y14	Z14	X15	Y15	Z15	X16	Y16	Z16	X17	Y17	Z17	X18	Y18	Z18	X19	Y19	Z19	X20	Y20	Z20	X21	Y21	Z21	X22	Y22	Z22
870	29.0	0.46388269170743207	0.9342068113683772	0.20351906083406363	0.48214303029681405	0.9281104350930528	0.31318376560728334	0.5788393144065731	0.500459317438109	0.30453558876678144	0.6014845975853935	0.10136662083559267	0.2607117802234071	0.7776589493658146	0.04159812297950671	0.2749436033745546	0.746332182129667	0.05219377911965473	0.3221820947319301	0.562590798691666	0.049129798437486216	0.26025500885459235	0.4285032287782157	0.9314356707588121	0.09452528893215796	0.40426561328075006	0.5122142679827983	0.07812480030626137	0.2645158747623128	0.11595045015370409	0.10163437193466342	0.42727817356780123	0.03729120564188242	0.0452587613601228	0.39413712119337546	0.035797991320591464	0.004370234606896357	0.21479359983918742	0.0669757455086925	0.1342837513838946	0.5084363092241211	1.5212154731174086	0.2139570716998792	0.6298285410745983	1.800421607542099	0.21798457667733873	0.6820144173465454	1.6229523936701373	0.19458611949268434	0.5288128382194941	1.4556228062341041	0.40145685018349975	0.6631989069354599	1.1885792637704133	0.43564295874668535	0.8865766444675468	1.060040068957376	0.29062067932496904	0.41234334970344544	1.4439534790563349	0.004192539418262648	0.3451381682367357	1.167060479728174	-0.04441614562935185	0.44837900478327264	0.9412730813764011	-0.09532734660045326
871	29.033333333333335	0.4651207483491769	0.9361922481830248	0.2052867166578304	0.483151054277451	0.9281389179430564	0.314572945486756	0.5823857264653476	0.5004775333628773	0.3023175222288075	0.6026676824867272	0.09997902023711086	0.25946701163368374	0.7788398181445261	0.040382392638051094	0.27074221721209274	0.7503093361089116	0.05264937817780621	0.3191541252085327	0.5637324429897086	0.049705627904487744	0.25534267742224787	0.43207579687298253	0.9313632621204674	0.09318154076554543	0.4079018196820089	0.5140324200575963	0.0774114611467065	0.26378578726365304	0.11699443657561907	0.09987774874970212	0.4265221955318252	0.03665258398180666	0.044549440724728745	0.393692294569681	0.03709153279077166	0.005045580990625282	0.21615292868823074	0.06584576407470615	0.13150047771058163	0.514137188209567	1.5247562222002664	0.21425710443568088	0.630753616697994	1.8032715621805862	0.2226745210035797	0.6878001480341468	1.6253710326486945	0.19369483849254326	0.52955549575126	1.4569272315227346	0.4015097928318877	0.6666277490805391	1.1884886121756928	0.4332206456602373	0.8932617135277189	1.0584394693575583	0.2849280055166824	0.41618540495592354	1.443665553253221	0.003949729463095677	0.34710101419092676	1.1668772026255165	-0.042386678644521836	0.44937774905713085	0.9394741064514487	-0.09943694867404097
872	29.066666666666666	0.4662013987772328	0.9358579272610041	0.20331096716009012	0.486743480136441	0.9292540753444409	0.3093775590881922	0.58366663528893	0.49975685964883054	0.30091296135775925	0.6013850505560535	0.10154003203165572	0.26206945373057056	0.7803069169870742	0.0391368623593868	0.2743907728143286	0.751704430425497	0.05099143368318378	0.317946900467854	0.5600623740133377	0.04796179674758169	0.2604375169193382	0.43100099961763294	0.9312910639341494	0.09423940009897296	0.41130309413332233	0.5132231835120686	0.07846789449287633	0.2644840715430896	0.11601949847336199	0.09854600606533859	0.4271665293778187	0.03343555618218441	0.041908885703074154	0.3943311531931976	0.03406526798457773	0.0023773082901426	0.214854880073175	0.06525330862652834	0.1326666668776449	0.5130529990017578	1.5234630584789983	0.21643426723309975	0.6368770412826429	1.8036617487159363	0.22192888578614753	0.6871908668290215	1.623364683697383	0.2009955035919469	0.5327763879194658	1.456465378134616	0.4033003206064794	0.6703787972471607	1.187401211783291	0.4346073273803055	0.8976973706570655	1.06070686769592	0.2860241080974076	0.4149674195923455	1.4459306983222349	0.004568168655500663	0.34430821830921093	1.1686225685346254	-0.03833802289443822	0.44662957490395266	0.9412938834318726	-0.09511425182572655
873	29.1	0.46728388976042295	0.9380280828687722	0.2048798434298282	0.490155670568518	0.9277239016020445	0.3080985452093727	0.5873916297165032	0.502725346086416	0.2994247577370831	0.6001122732089142	0.10324159122453398	0.2671472318039667	0.7819932433155985	0.03970316833941159	0.26960710629661694	0.7477699787494334	0.051051340101056455	0.31956976737816484	0.5613033948245387	0.04870367567449259	0.2604249639157838	0.4346114553849307	0.9313174077361689	0.09871921901981058	0.4164844623894833	0.5178980879950335	0.07464081058988874	0.2673495621512857	0.12000112601107595	0.09848637448780127	0.4258021349562962	0.03687933211572762	0.04063154741924858	0.3932198697875216	0.03569668764932237	0.002398498533249093	0.21561957407063878	0.06776495570835844	0.1337267132363409	0.5165500451394222	1.5210478693779226	0.22020750858586158	0.6383443382081234	1.802824293289367	0.2240147450144403	0.6909604848726438	1.6248936881243348	0.19935345401345925	0.536423208126335	1.4573217324743777	0.401662159214704	0.6743312035130435	1.191968353132085	0.4328231161887505	0.9023572845570128	1.0613420482434461	0.2843046543468412	0.41691972547208844	1.4451545107033406	0.011762522271496802	0.3470965994254109	1.1690885437487506	-0.04018604683383078	0.4451240507726359	0.9395449468357273	-0.09668250261676384
874	29.133333333333333	0.46746825943708703	0.9387238026092234	0.20770103775468873	0.4902216178659487	0.9301326086061047	0.3106037362734306	0.587316902370003	0.5024474802805966	0.3010654196760984	0.6051751782235935	0.09856619787534229	0.2628514011945231	0.7843548024870536	0.040185586348824735	0.2705405265217593	0.753073369574872	0.04844322719236193	0.3165421602632219	0.5637808086256022	0.04686207504567249	0.2600181062285319	0.4344802514645313	0.93189047921058	0.0954393668513831	0.4213423737087378	0.5170884455661262	0.0761950664934589	0.2656550630885958	0.11935954944837479	0.09843983752663103	0.42855710143940484	0.03744812398438741	0.04195183921791858	0.3959513987272924	0.03619174774414507	0.003801241217212502	0.2160698903819604	0.07046642370042858	0.13117238097188413	0.5187332613536624	1.5261201524728305	0.21838359509918287	0.6405195814696255	1.8022860506700753	0.22787122135565857	0.6932174590732453	1.6244593778729752	0.20003334975082324	0.538272494204524	1.457751545698741	0.4058771739134215	0.6818676236567337	1.1904713233253996	0.43172058339823466	0.904310303179107	1.0641262239761673	0.2843260919411343	0.4191386823785455	1.4468677486195116	0.01187818454601461	0.34775476917715903	1.16947912807626	-0.036752784638439284	0.44278629223409127	0.9421944596862067	-0.09590191412056534
875	29.166666666666668	0.4732636988706677	0.9397061430283996	0.20591362802379015	0.49142102896971873	0.9294331871444572	0.309110212928589	0.5884082331808594	0.5002011720202051	0.2994704382448828	0.6037016485918115	0.0976423074486789	0.2640016956668123	0.7795115465852539	0.04005782419476852	0.27413869302097	0.7481472800222407	0.048259668425879365	0.3200769100758197	0.5625271729635856	0.046209920393023046	0.2611460251834462	0.43624811932809826	0.9329439873862581	0.10064667851404195	0.42283705961472756	0.5170244724818794	0.07620079834531754	0.26721211535678874	0.11979249663276466	0.09631976837522618	0.42936854177939593	0.03564884074223259	0.0385633623551544	0.394768156146145	0.034840797935612636	0.0029334069259733366	0.2159742185780008	0.07151442150780299	0.13431703247984864	0.5176681775775835	1.522237192675806	0.2207250197149954	0.6438438492360474	1.8020702540638833	0.22958053370581588	0.6966397108384902	1.626073938210806	0.20090227024406515	0.5393683326248062	1.4576557360302702	0.40464934380155637	0.6849883758400227	1.1894460228212107	0.431907375592614	0.9077574228333152	1.0645180431015104	0.27922177041033497	0.41850680129235596	1.4467447498663415	0.013314971006275144	0.3474216968760513	1.171455089261551	-0.03486509076277038	0.4424131517818807	0.9430211671875045	-0.09362265104505586
